<?xml version="1.0" encoding="UTF-8" standalone="no"?>
<!DOCTYPE svg PUBLIC "-//W3C//DTD SVG 1.1//EN" "http://www.w3.org/Graphics/SVG/1.1/DTD/svg11.dtd">
<svg xmlns="http://www.w3.org/2000/svg" version="1.1" viewBox="0.00 0.00 500.00 500.00">
<path fill="#ffc423" d="
  M 246.21 338.93
  Q 227.41 360.77 198.59 355.77
  C 185.30 353.46 174.19 346.39 169.92 333.03
  A 0.37 0.37 0.0 0 0 169.32 332.86
  C 154.52 345.88 135.95 356.04 116.02 356.75
  Q 113.14 356.85 102.26 355.92
  Q 91.28 354.98 80.76 351.21
  C 52.93 341.22 41.03 318.00 39.37 289.72
  C 36.72 244.75 58.99 201.55 86.87 167.88
  Q 120.38 127.41 164.89 100.41
  C 186.08 87.55 210.31 76.99 234.93 74.30
  C 239.11 73.84 243.67 73.93 248.22 74.10
  C 257.68 74.46 266.79 79.95 270.22 89.25
  C 275.66 103.95 269.61 120.82 260.95 133.71
  Q 251.76 147.41 238.19 157.45
  C 233.65 160.82 226.78 164.42 220.44 163.90
  C 211.77 163.19 204.60 159.69 204.32 149.88
  C 204.00 138.64 214.21 132.95 223.87 131.10
  C 226.44 130.61 230.85 130.16 233.99 129.05
  C 243.46 125.69 250.75 116.99 250.59 106.69
  C 250.32 89.84 229.53 96.29 220.28 100.56
  Q 206.11 107.09 191.77 119.54
  C 162.29 145.11 138.62 178.34 121.94 213.44
  Q 112.04 234.28 107.21 255.98
  Q 102.90 275.37 105.56 296.23
  C 107.34 310.19 113.58 327.57 130.43 329.29
  C 141.15 330.38 151.49 325.81 158.55 317.77
  C 165.17 310.25 168.20 303.14 173.00 292.99
  C 184.61 268.43 203.95 246.29 228.39 233.66
  Q 246.40 224.35 264.63 224.38
  Q 272.71 224.40 279.51 229.75
  A 0.51 0.50 30.9 0 0 280.29 229.56
  C 281.57 226.64 283.28 224.35 286.74 224.27
  Q 289.00 224.21 313.24 224.27
  C 319.55 224.29 322.93 226.57 322.46 233.27
  A 3.36 3.09 -35.0 0 1 322.25 234.23
  Q 319.71 241.06 319.37 241.83
  C 308.31 266.94 299.76 286.19 291.98 305.96
  Q 288.53 314.70 287.36 320.64
  Q 287.00 322.44 287.53 327.58
  Q 287.98 331.87 292.26 331.91
  C 309.46 332.06 325.24 319.78 338.37 307.55
  A 1.07 1.07 0.0 0 0 338.68 306.51
  Q 336.10 296.24 336.07 285.00
  C 335.90 225.58 370.96 167.39 414.59 129.35
  Q 428.74 117.00 444.87 109.35
  Q 447.65 108.03 452.54 107.03
  C 474.05 102.60 473.31 125.33 469.88 138.67
  Q 465.20 156.85 455.72 176.23
  Q 425.96 237.06 382.78 289.80
  A 1.70 1.67 64.1 0 0 382.39 290.96
  C 383.43 317.94 395.29 338.61 421.56 347.70
  Q 428.51 350.10 438.77 352.98
  C 444.66 354.63 449.64 359.88 446.57 366.29
  Q 444.95 369.66 442.65 372.69
  C 420.25 402.21 377.83 413.66 342.74 415.45
  Q 330.28 416.09 325.75 416.00
  C 313.24 415.75 303.86 415.60 294.76 415.15
  Q 221.91 411.54 217.94 411.37
  Q 186.47 409.99 154.11 409.59
  C 114.60 409.10 73.81 409.79 36.73 424.22
  Q 33.39 425.52 30.54 424.28
  A 3.44 3.31 11.7 0 1 28.48 421.27
  C 28.36 416.16 33.34 410.06 36.73 406.47
  C 50.64 391.76 69.90 382.01 89.10 376.12
  C 116.97 367.56 145.60 365.35 175.00 365.98
  Q 218.15 366.91 253.00 368.73
  C 293.38 370.84 325.01 372.83 358.10 373.63
  Q 371.72 373.96 379.14 373.62
  C 388.03 373.22 397.91 371.93 405.58 367.86
  Q 407.36 366.92 407.96 365.92
  A 1.33 1.33 0.0 0 0 407.42 364.04
  Q 405.03 362.84 397.74 361.51
  C 375.76 357.50 358.44 346.40 346.74 327.26
  A 0.52 0.51 53.5 0 0 345.97 327.14
  C 324.44 345.75 301.49 356.99 272.55 356.70
  Q 268.13 356.65 262.97 355.25
  Q 250.35 351.82 247.02 339.12
  A 0.47 0.47 0.0 0 0 246.21 338.93
  Z
  M 384.83 254.91
  Q 415.23 212.89 439.14 165.92
  C 442.75 158.84 447.30 149.58 449.15 141.72
  Q 449.60 139.84 449.11 138.87
  A 1.24 1.24 0.0 0 0 447.34 138.38
  C 443.29 140.92 438.85 145.54 435.83 149.07
  C 410.41 178.85 391.60 215.83 384.35 254.71
  A 0.27 0.26 -22.1 0 0 384.83 254.91
  Z
  M 271.90 248.83
  Q 270.81 244.73 266.48 244.04
  C 255.58 242.28 245.58 252.39 239.36 260.86
  Q 225.03 280.35 219.26 304.06
  Q 218.31 307.94 218.59 315.63
  Q 218.84 322.57 224.89 324.06
  C 233.12 326.09 238.75 320.49 243.31 314.21
  Q 245.45 311.27 248.02 304.86
  C 255.45 286.33 260.09 276.45 271.81 250.01
  A 1.82 1.78 50.0 0 0 271.90 248.83
  Z"
/>
<path fill="#ffc423" d="
  M 467.81 400.47
  A 15.35 15.35 0.0 0 1 452.46 415.82
  A 15.35 15.35 0.0 0 1 437.11 400.47
  A 15.35 15.35 0.0 0 1 452.46 385.12
  A 15.35 15.35 0.0 0 1 467.81 400.47
  Z
  M 464.45 400.46
  A 11.98 11.98 0.0 0 0 452.47 388.48
  A 11.98 11.98 0.0 0 0 440.49 400.46
  A 11.98 11.98 0.0 0 0 452.47 412.44
  A 11.98 11.98 0.0 0 0 464.45 400.46
  Z"
/>
<path fill="#ffc423" d="
  M 459.67 408.34
  A 0.09 0.09 0.0 0 1 459.59 408.47
  L 455.61 408.47
  A 0.42 0.41 78.0 0 1 455.23 408.22
  C 454.14 405.86 452.62 402.08 449.65 402.00
  A 0.65 0.65 0.0 0 0 448.99 402.65
  L 448.99 408.05
  A 0.45 0.45 0.0 0 1 448.54 408.50
  L 446.02 408.50
  A 0.52 0.52 0.0 0 1 445.50 407.98
  L 445.50 393.15
  A 0.63 0.62 88.6 0 1 446.09 392.52
  C 447.75 392.42 455.60 391.82 457.49 393.83
  C 459.86 396.37 458.98 399.53 455.86 401.28
  A 0.23 0.23 0.0 0 0 455.78 401.60
  L 459.67 408.34
  Z
  M 449.03 395.61
  L 448.99 398.87
  A 0.38 0.38 0.0 0 0 449.36 399.25
  L 451.95 399.29
  A 2.97 1.87 0.8 0 0 454.95 397.46
  L 454.95 397.18
  A 2.97 1.87 0.8 0 0 452.01 395.27
  L 449.42 395.23
  A 0.38 0.38 0.0 0 0 449.03 395.61
  Z"
/>
</svg>
